<svg width="18" height="18" viewBox="0 0 18 18" fill="none" xmlns="http://www.w3.org/2000/svg">
<circle cx="8.86816" cy="8.86816" r="8.86816" fill="#E31B70" fill-opacity="0.12"/>
<path d="M13.0758 5.06738H12.0148C11.7841 5.06738 11.5646 5.17823 11.4289 5.36827L7.87256 10.3001L6.26181 8.06491C6.12607 7.87714 5.90889 7.76403 5.67588 7.76403H4.61486C4.46781 7.76403 4.38185 7.93144 4.46781 8.05134L7.28662 11.9606C7.35321 12.0535 7.441 12.1292 7.5427 12.1815C7.6444 12.2337 7.75709 12.261 7.87143 12.261C7.98576 12.261 8.09845 12.2337 8.20015 12.1815C8.30185 12.1292 8.38964 12.0535 8.45623 11.9606L13.2206 5.35469C13.3088 5.23479 13.2229 5.06738 13.0758 5.06738Z" fill="url(#paint0_linear_969_7)"/>
<defs>
<linearGradient id="paint0_linear_969_7" x1="13.2631" y1="7.97908" x2="2.42831" y2="7.98402" gradientUnits="userSpaceOnUse">
<stop stop-color="#FF016C"/>
<stop offset="1" stop-color="#FF016C" stop-opacity="0"/>
</linearGradient>
</defs>
</svg>
