<svg width="22" height="20" viewBox="0 0 22 20" fill="none" xmlns="http://www.w3.org/2000/svg">
<path d="M21 17C21 17.5304 20.7893 18.0391 20.4142 18.4142C20.0391 18.7893 19.5304 19 19 19H3C2.46957 19 1.96086 18.7893 1.58579 18.4142C1.21071 18.0391 1 17.5304 1 17V3C1 2.46957 1.21071 1.96086 1.58579 1.58579C1.96086 1.21071 2.46957 1 3 1H8L10 4H19C19.5304 4 20.0391 4.21071 20.4142 4.58579C20.7893 4.96086 21 5.46957 21 6V17Z" fill="url(#paint0_linear_756_32)" stroke="url(#paint1_linear_756_32)" stroke-linecap="round" stroke-linejoin="round"/>
<defs>
<linearGradient id="paint0_linear_756_32" x1="11.9559" y1="-0.125" x2="11.8384" y2="21.3155" gradientUnits="userSpaceOnUse">
<stop stop-color="#FF016C"/>
<stop offset="1" stop-color="#120209" stop-opacity="0"/>
</linearGradient>
<linearGradient id="paint1_linear_756_32" x1="11" y1="1" x2="11" y2="19" gradientUnits="userSpaceOnUse">
<stop stop-color="#F394AF"/>
<stop offset="1" stop-color="#F394AF" stop-opacity="0"/>
</linearGradient>
</defs>
</svg>
