<svg width="24" height="26" viewBox="0 0 24 26" fill="none" xmlns="http://www.w3.org/2000/svg">
<path d="M8.99873 21.5988C3.28535 23.3128 3.28535 18.7421 1 18.1707ZM16.9975 25.0268V20.6046C17.0403 20.0598 16.9667 19.512 16.7815 18.9978C16.5963 18.4836 16.3038 18.0147 15.9233 17.6223C19.5113 17.2223 23.2822 15.8625 23.2822 9.62353C23.2819 8.02816 22.6682 6.49397 21.5682 5.3385C22.089 3.94273 22.0522 2.39994 21.4653 1.03062C21.4653 1.03062 20.117 0.63068 16.9975 2.72178C14.3785 2.01197 11.6177 2.01197 8.99873 2.72178C5.87922 0.63068 4.53087 1.03062 4.53087 1.03062C3.94396 2.39994 3.90713 3.94273 4.42803 5.3385C3.31978 6.50254 2.70547 8.0506 2.71401 9.65781C2.71401 15.8511 6.48484 17.2109 10.0728 17.6565C9.6969 18.045 9.40696 18.5083 9.2219 19.0162C9.03684 19.5242 8.9608 20.0654 8.99873 20.6046V25.0268" fill="url(#paint0_linear_756_3)"/>
<path d="M8.99873 21.5988C3.28535 23.3128 3.28535 18.7421 1 18.1707M16.9975 25.0268V20.6046C17.0403 20.0598 16.9667 19.512 16.7815 18.9978C16.5963 18.4836 16.3038 18.0147 15.9233 17.6223C19.5113 17.2223 23.2822 15.8625 23.2822 9.62353C23.2819 8.02816 22.6682 6.49397 21.5682 5.3385C22.089 3.94273 22.0522 2.39994 21.4653 1.03062C21.4653 1.03062 20.117 0.63068 16.9975 2.72178C14.3785 2.01197 11.6177 2.01197 8.99873 2.72178C5.87922 0.63068 4.53087 1.03062 4.53087 1.03062C3.94396 2.39994 3.90713 3.94273 4.42803 5.3385C3.31978 6.50254 2.70547 8.0506 2.71401 9.65781C2.71401 15.8511 6.48484 17.2109 10.0728 17.6565C9.6969 18.045 9.40696 18.5083 9.2219 19.0162C9.03684 19.5242 8.9608 20.0654 8.99873 20.6046V25.0268" stroke="url(#paint1_linear_756_3)" stroke-linecap="round" stroke-linejoin="round"/>
<defs>
<linearGradient id="paint0_linear_756_3" x1="13.206" y1="-0.501674" x2="13.0181" y2="28.1172" gradientUnits="userSpaceOnUse">
<stop stop-color="#FF016C"/>
<stop offset="1" stop-color="#120209" stop-opacity="0"/>
</linearGradient>
<linearGradient id="paint1_linear_756_3" x1="12.1411" y1="1" x2="12.1411" y2="25.0268" gradientUnits="userSpaceOnUse">
<stop stop-color="#F394AF"/>
<stop offset="1" stop-color="#F394AF" stop-opacity="0"/>
</linearGradient>
</defs>
</svg>
