<svg width="98" height="96" viewBox="0 0 98 96" fill="none" xmlns="http://www.w3.org/2000/svg">
<path d="M3.66406 5.75586H97.8547" stroke="url(#paint0_linear_987_3)" stroke-width="1.56985"/>
<path d="M91.3125 0.523438V93.9292" stroke="url(#paint1_linear_987_3)" stroke-width="1.56985"/>
<path d="M96.0222 88.6963H0" stroke="url(#paint2_linear_987_3)" stroke-width="1.56985"/>
<path d="M8.11133 0V95.2372" stroke="url(#paint3_linear_987_3)" stroke-width="1.56985"/>
<path d="M49.0737 43.0327C48.4815 42.7966 47.8041 43.0842 47.6263 43.6965C46.9423 46.0522 46.9995 48.5719 47.8061 50.9083C48.7387 53.6099 50.6111 55.8863 53.082 57.3227C55.5529 58.759 58.4577 59.2596 61.2668 58.733C64.076 58.2065 66.6023 56.688 68.3854 54.4544C70.1684 52.2207 71.0893 49.4207 70.9803 46.5647C70.8713 43.7088 69.7395 40.9871 67.7914 38.8959C65.8432 36.8047 63.2084 35.4832 60.3674 35.1724C57.9104 34.9036 55.4406 35.4062 53.2951 36.5951C52.7374 36.9042 52.607 37.6285 52.9685 38.1537C53.33 38.6789 54.0463 38.8046 54.6111 38.5086C56.2943 37.6265 58.21 37.2591 60.1163 37.4677C62.4069 37.7182 64.5313 38.7837 66.102 40.4697C67.6727 42.1558 68.5852 44.3502 68.6731 46.6528C68.761 48.9555 68.0185 51.213 66.5809 53.0139C65.1433 54.8148 63.1064 56.0391 60.8415 56.4636C58.5766 56.8881 56.2346 56.4846 54.2424 55.3265C52.2502 54.1685 50.7405 52.333 49.9886 50.1548C49.3629 48.3422 49.2966 46.3926 49.7838 44.5558C49.9473 43.9395 49.666 43.2689 49.0737 43.0327Z" fill="#F8D9E6"/>
<path d="M52.4998 51.157C53.0802 51.4209 53.7705 51.1656 53.977 50.5624C54.779 48.2205 54.8347 45.6765 54.1198 43.2866C53.2943 40.5266 51.4969 38.159 49.0603 36.622C46.6236 35.085 43.7128 34.4826 40.8663 34.9264C38.0198 35.3701 35.4303 36.83 33.5772 39.0357C31.7241 41.2415 30.7327 44.0439 30.7864 46.9242C30.8402 49.8046 31.9355 52.568 33.8697 54.7031C35.8039 56.8381 38.446 58.2003 41.3071 58.5375C43.7844 58.8295 46.2807 58.3359 48.4492 57.1421C49.0077 56.8346 49.1402 56.1107 48.7801 55.5845C48.4201 55.0583 47.7041 54.9306 47.1386 55.225C45.4369 56.1108 43.5 56.4711 41.5773 56.2444C39.2705 55.9726 37.1403 54.8743 35.5809 53.1529C34.0214 51.4315 33.1383 49.2035 33.095 46.8811C33.0516 44.5588 33.8509 42.2994 35.3451 40.521C36.8392 38.7425 38.9269 37.5655 41.2219 37.2078C43.5169 36.85 45.8639 37.3356 47.8284 38.5748C49.793 39.8141 51.2421 41.723 51.9077 43.9483C52.4625 45.8031 52.4417 47.7731 51.8626 49.602C51.6701 50.2099 51.9194 50.8931 52.4998 51.157Z" fill="#F8D9E6"/>
<defs>
<linearGradient id="paint0_linear_987_3" x1="97.9279" y1="6.16062" x2="-17.6027" y2="10.208" gradientUnits="userSpaceOnUse">
<stop stop-color="#FF016C"/>
<stop offset="1" stop-color="#120209" stop-opacity="0"/>
</linearGradient>
<linearGradient id="paint1_linear_987_3" x1="91.8125" y1="102.04" x2="139.736" y2="22.6495" gradientUnits="userSpaceOnUse">
<stop stop-color="#120209" stop-opacity="0"/>
<stop offset="1" stop-color="#FF016C"/>
</linearGradient>
<linearGradient id="paint2_linear_987_3" x1="96.0967" y1="89.1011" x2="-21.6746" y2="93.3072" gradientUnits="userSpaceOnUse">
<stop stop-color="#120209" stop-opacity="0"/>
<stop offset="1" stop-color="#FF016C"/>
</linearGradient>
<linearGradient id="paint3_linear_987_3" x1="8.61128" y1="100.208" x2="56.496" y2="22.4077" gradientUnits="userSpaceOnUse">
<stop stop-color="#FF016C"/>
<stop offset="1" stop-color="#120209" stop-opacity="0"/>
</linearGradient>
</defs>
</svg>
