<svg width="14" height="16" viewBox="0 0 14 16" fill="none" xmlns="http://www.w3.org/2000/svg">
<path d="M13.2218 14.9999V13.4444C13.2218 12.6192 12.894 11.8279 12.3106 11.2445C11.7271 10.661 10.9358 10.3333 10.1107 10.3333H3.88845C3.06334 10.3333 2.27201 10.661 1.68857 11.2445C1.10512 11.8279 0.777344 12.6192 0.777344 13.4444V14.9999" fill="#F9EAF0"/>
<path d="M13.2218 14.9999V13.4444C13.2218 12.6192 12.894 11.8279 12.3106 11.2445C11.7271 10.661 10.9358 10.3333 10.1107 10.3333H3.88845C3.06334 10.3333 2.27201 10.661 1.68857 11.2445C1.10512 11.8279 0.777344 12.6192 0.777344 13.4444V14.9999" stroke="#F8D9E6" stroke-width="0.777778" stroke-linecap="round" stroke-linejoin="round"/>
<path d="M6.99978 7.22222C8.718 7.22222 10.1109 5.82933 10.1109 4.11111C10.1109 2.39289 8.718 1 6.99978 1C5.28156 1 3.88867 2.39289 3.88867 4.11111C3.88867 5.82933 5.28156 7.22222 6.99978 7.22222Z" fill="#F9EAF0" stroke="#F8D9E6" stroke-width="0.777778" stroke-linecap="round" stroke-linejoin="round"/>
</svg>
