<svg width="32" height="32" viewBox="0 0 32 32" fill="none" xmlns="http://www.w3.org/2000/svg">
<circle cx="16" cy="16" r="16" fill="url(#paint0_linear_690_54)"/>
<path d="M11.7863 13.5054H13.6031C13.6031 11.2375 14.1374 9.79863 16.0153 9.79863C17.8779 9.84555 18.3969 11.0499 18.4275 13.5054H20.2137C20.2137 10.6276 19.145 8 16.0153 8C13.2519 8 11.7863 9.92375 11.7863 13.5054Z" fill="#F8D9E6"/>
<path fill-rule="evenodd" clip-rule="evenodd" d="M10 15.9296C10 15.0068 10.7634 14.0997 11.7863 14.0997H20.2137C21.2366 14.0997 22 14.8817 22 15.9296V22.3734C22 23.2336 21.1603 24 20.2137 24H11.7863C10.7023 24 10 23.1241 10 22.1701V15.9296ZM14.7939 18.4321C14.7939 18.9638 15.0229 19.3392 15.4046 19.5425V20.9814C15.4046 21.3568 15.6794 21.5758 16 21.5758C16.3206 21.5758 16.6107 21.3724 16.6107 20.9814V19.5425C17.0229 19.2141 17.2061 18.9795 17.2061 18.4321C17.2061 17.65 16.687 17.2278 16 17.2278C15.374 17.2278 14.7939 17.697 14.7939 18.4321Z" fill="#F8D9E6"/>
<defs>
<linearGradient id="paint0_linear_690_54" x1="32.0248" y1="12.9524" x2="-7.27325" y2="12.967" gradientUnits="userSpaceOnUse">
<stop stop-color="#9F114D"/>
<stop offset="1" stop-color="#120209" stop-opacity="0"/>
</linearGradient>
</defs>
</svg>
