<svg width="26" height="25" viewBox="0 0 26 25" fill="none" xmlns="http://www.w3.org/2000/svg">
<path d="M17.9468 8.26318C19.8731 8.26318 21.7205 9.02841 23.0826 10.3905C24.4447 11.7526 25.2099 13.6 25.2099 15.5263V24H20.3678V15.5263C20.3678 14.8842 20.1127 14.2684 19.6587 13.8144C19.2047 13.3604 18.5889 13.1053 17.9468 13.1053C17.3046 13.1053 16.6888 13.3604 16.2348 13.8144C15.7808 14.2684 15.5257 14.8842 15.5257 15.5263V24H10.6836V15.5263C10.6836 13.6 11.4488 11.7526 12.8109 10.3905C14.173 9.02841 16.0204 8.26318 17.9468 8.26318Z" fill="url(#paint0_linear_756_9)" stroke="url(#paint1_linear_756_9)" stroke-linecap="round" stroke-linejoin="round"/>
<path d="M5.84211 9.47363H1V23.9999H5.84211V9.47363Z" fill="url(#paint2_linear_756_9)" stroke="url(#paint3_linear_756_9)" stroke-linecap="round" stroke-linejoin="round"/>
<path d="M3.42105 5.84211C4.75816 5.84211 5.84211 4.75816 5.84211 3.42105C5.84211 2.08394 4.75816 1 3.42105 1C2.08394 1 1 2.08394 1 3.42105C1 4.75816 2.08394 5.84211 3.42105 5.84211Z" fill="url(#paint4_linear_756_9)" stroke="url(#paint5_linear_756_9)" stroke-linecap="round" stroke-linejoin="round"/>
<defs>
<linearGradient id="paint0_linear_756_9" x1="18.641" y1="7.27963" x2="18.5173" y2="26.0242" gradientUnits="userSpaceOnUse">
<stop stop-color="#FF016C"/>
<stop offset="1" stop-color="#120209" stop-opacity="0"/>
</linearGradient>
<linearGradient id="paint1_linear_756_9" x1="17.9468" y1="8.26318" x2="17.9468" y2="24" gradientUnits="userSpaceOnUse">
<stop stop-color="#F394AF"/>
<stop offset="1" stop-color="#F394AF" stop-opacity="0"/>
</linearGradient>
<linearGradient id="paint2_linear_756_9" x1="3.65248" y1="8.56574" x2="3.33641" y2="25.8634" gradientUnits="userSpaceOnUse">
<stop stop-color="#FF016C"/>
<stop offset="1" stop-color="#120209" stop-opacity="0"/>
</linearGradient>
<linearGradient id="paint3_linear_756_9" x1="3.42105" y1="9.47363" x2="3.42105" y2="23.9999" gradientUnits="userSpaceOnUse">
<stop stop-color="#F394AF"/>
<stop offset="1" stop-color="#F394AF" stop-opacity="0"/>
</linearGradient>
<linearGradient id="paint4_linear_756_9" x1="3.65248" y1="0.697368" x2="3.61735" y2="6.46496" gradientUnits="userSpaceOnUse">
<stop stop-color="#FF016C"/>
<stop offset="1" stop-color="#120209" stop-opacity="0"/>
</linearGradient>
<linearGradient id="paint5_linear_756_9" x1="3.42105" y1="1" x2="3.42105" y2="5.84211" gradientUnits="userSpaceOnUse">
<stop stop-color="#F394AF"/>
<stop offset="1" stop-color="#F394AF" stop-opacity="0"/>
</linearGradient>
</defs>
</svg>
