<svg width="333" height="333" viewBox="0 0 333 333" fill="none" xmlns="http://www.w3.org/2000/svg">
<g id="logoA" class="logoA">
<path id="C" class="logoA" d="M203.115 253.937C214.485 249.205 225.928 241.04 235.561 230.817L234.834 230.132L235.562 230.817C248.74 216.832 256.616 200.76 259.936 181.107C260.45 178.059 261.093 175.083 261.711 172.748C262.021 171.579 262.321 170.583 262.591 169.826C262.727 169.447 262.851 169.139 262.961 168.904C263.077 168.655 263.153 168.542 263.178 168.512L263.178 168.511C263.343 168.313 263.634 168.069 264.527 167.844C265.446 167.613 266.888 167.432 269.241 167.301C273.934 167.038 281.998 166.981 296.179 166.981C298.886 166.981 301.393 166.974 303.714 166.969C309.918 166.953 314.797 166.941 318.635 167.061C323.961 167.228 327.059 167.651 328.849 168.542C329.697 168.963 330.212 169.473 330.542 170.099C330.885 170.749 331.072 171.605 331.113 172.785C331.173 174.534 330.918 176.74 330.582 179.636C330.453 180.746 330.313 181.957 330.174 183.283C328.558 198.714 324.527 214.752 318.72 228.854C297.092 281.382 250.009 319.12 194.007 328.814C182.309 330.839 175.461 331.081 127.911 331.081C108.041 331.081 94.6945 330.994 86.1872 330.776C81.9307 330.667 78.9044 330.526 76.8848 330.349C75.8722 330.26 75.1381 330.165 74.6386 330.066C74.407 330.02 74.2467 329.977 74.1425 329.942M203.115 253.937L202.731 253.014L203.115 253.937C203.115 253.937 203.115 253.937 203.115 253.937ZM203.115 253.937C195.058 257.292 189.916 259.091 179.846 260.034C169.851 260.969 154.961 261.066 127.396 261.066C105.615 261.066 93.001 261.126 85.5521 261.381C81.8234 261.509 79.4261 261.684 77.8343 261.919C76.2303 262.155 75.5618 262.437 75.1958 262.693L75.1955 262.693C74.5696 263.132 74.2863 263.354 74.0442 263.878C73.7638 264.484 73.5282 265.541 73.3664 267.71C73.045 272.018 73.0399 280.169 73.0399 296.488C73.0399 308.471 73.1338 316.748 73.354 322.152C73.4642 324.858 73.6053 326.819 73.778 328.156C73.8646 328.827 73.9558 329.313 74.0463 329.646C74.0859 329.792 74.1197 329.886 74.1425 329.942M74.1425 329.942C74.1339 329.939 74.1256 329.936 74.1178 329.934C74.0758 329.918 74.0535 329.908 74.0458 329.904C74.0564 329.91 74.0939 329.933 74.1408 329.98C74.162 330.001 74.1719 330.015 74.173 330.014C74.1742 330.013 74.1628 329.993 74.1425 329.942ZM80.3763 125.573L80.3763 125.573C78.1183 130.178 75.8096 136.815 74.0601 143.205C72.316 149.576 71.0926 155.828 71.0655 159.643C71.0592 160.52 70.9108 161.472 70.6769 162.285C70.4427 163.1 70.1646 163.629 69.9686 163.848C69.9464 163.858 69.8457 163.908 69.6003 163.974C69.2622 164.065 68.7686 164.156 68.0876 164.243C66.7298 164.416 64.7367 164.557 61.9849 164.667C56.4877 164.887 48.0591 164.981 35.8404 164.981C33.4197 164.981 31.1605 164.984 29.052 164.987C22.6442 164.998 17.6279 165.005 13.6993 164.905C8.43675 164.771 5.29415 164.441 3.42727 163.743C2.52557 163.405 1.99748 163.008 1.66671 162.567C1.33439 162.125 1.12914 161.543 1.04461 160.707C0.958807 159.858 1.0034 158.816 1.12077 157.5C1.18191 156.815 1.25606 156.116 1.33666 155.357C1.41621 154.608 1.50203 153.799 1.5878 152.886C6.66655 98.7992 36.5193 51.5057 83.0103 23.8869L82.4996 23.0271L83.0103 23.8869C101.843 12.6985 128.358 4.08236 149.779 2.1874L149.691 1.19129L149.78 2.18739C155.89 1.6461 182.274 1.12736 208.433 1.03902C229.812 0.967558 241.725 0.976537 248.533 1.2183C251.945 1.33943 254.023 1.51777 255.351 1.76114C256.663 2.00146 257.13 2.28581 257.414 2.54361C257.774 2.86957 258.05 3.21257 258.287 4.00136C258.543 4.85362 258.743 6.19678 258.885 8.51321C259.169 13.1317 259.21 21.3024 259.21 36.4162C259.21 48.355 259.116 56.6038 258.895 61.9907C258.785 64.6874 258.644 66.6427 258.471 67.9761C258.385 68.6447 258.294 69.1295 258.203 69.4616C258.162 69.6124 258.127 69.7076 258.105 69.7631C258.012 69.7965 257.868 69.8375 257.661 69.8821C257.208 69.9793 256.545 70.074 255.629 70.1622C253.803 70.3382 251.08 70.4793 247.265 70.5885C239.641 70.8067 227.738 70.8956 210.115 70.8956C196.458 70.8956 183.663 71.0275 173.624 71.2495C163.617 71.4709 156.278 71.7827 153.586 72.1524C121.476 76.5626 94.8973 95.9654 80.3763 125.573Z" fill="url(#paint0_linear_885_15)" fill-opacity="0.7" stroke="url(#paint1_linear_885_15)" stroke-width="2" stroke-miterlimit="16" stroke-linejoin="round"/>
<circle id="elipse" cx="158.994" cy="166.406" r="31.0488" fill="url(#paint2_linear_885_15)" stroke="url(#paint3_linear_885_15)" stroke-width="1.5"/>
</g>
<defs>
<linearGradient id="paint0_linear_885_15" x1="257.924" y1="63.9427" x2="-14.1328" y2="261.802" gradientUnits="userSpaceOnUse">
<stop stop-color="#FF016C"/>
<stop offset="1" stop-color="#120209" stop-opacity="0"/>
</linearGradient>
<linearGradient id="paint1_linear_885_15" x1="282.656" y1="63.9428" x2="52.9981" y2="205.271" gradientUnits="userSpaceOnUse">
<stop stop-color="#FF016C"/>
<stop offset="1" stop-color="#FF016C" stop-opacity="0"/>
</linearGradient>
<linearGradient id="paint2_linear_885_15" x1="183.727" y1="152.273" x2="127.004" y2="183.726" gradientUnits="userSpaceOnUse">
<stop stop-color="#F8EBF0"/>
<stop offset="1" stop-color="white" stop-opacity="0"/>
</linearGradient>
<linearGradient id="paint3_linear_885_15" x1="180.193" y1="145.206" x2="134.262" y2="184.072" gradientUnits="userSpaceOnUse">
<stop stop-color="#FFF6F6"/>
<stop offset="1" stop-color="#FFF6F6" stop-opacity="0"/>
</linearGradient>
</defs>
</svg>
