<svg width="47" height="47" viewBox="0 0 47 47" fill="none" xmlns="http://www.w3.org/2000/svg">
<path d="M21.2056 0.417609L21.2055 0.417612C18.1906 0.684316 14.4539 1.89844 11.8026 3.47361L11.6749 3.25868L11.8026 3.47361C5.2534 7.36427 1.0482 14.026 0.332707 21.6457C0.320145 21.7795 0.308053 21.8932 0.29691 21.9979C0.285705 22.1032 0.27546 22.1995 0.266662 22.2982C0.250141 22.4835 0.244721 22.6222 0.255762 22.7314C0.266487 22.8375 0.291256 22.8987 0.322615 22.9405C0.353586 22.9817 0.408713 23.0276 0.523023 23.0704C0.767517 23.1618 1.19407 23.2089 1.94141 23.228C2.49576 23.2422 3.20349 23.2411 4.10967 23.2396C4.40833 23.2392 4.72855 23.2387 5.07193 23.2387C6.80105 23.2387 7.99188 23.2254 8.76742 23.1944C9.15599 23.1788 9.4343 23.159 9.62168 23.1351C9.7159 23.1231 9.78026 23.1109 9.82127 23.0999C9.82569 23.0987 9.82961 23.0976 9.83305 23.0966C9.83752 23.0892 9.84304 23.0792 9.84933 23.0663C9.86558 23.0327 9.88237 22.9885 9.89755 22.9357C9.92811 22.8294 9.9475 22.7045 9.94831 22.591C9.95226 22.0361 10.1288 21.1399 10.3759 20.237C10.6245 19.3292 10.9533 18.3828 11.277 17.7226L11.277 17.7226C13.3475 13.501 17.1394 10.7323 21.7199 10.1031C22.1084 10.0498 23.1543 10.0057 24.568 9.97439C25.9895 9.94294 27.801 9.92427 29.7343 9.92427C32.2284 9.92427 33.9113 9.91169 34.9884 9.88086C35.5278 9.86542 35.9102 9.84553 36.1648 9.82099C36.2924 9.80869 36.3814 9.79581 36.4394 9.78338C36.4491 9.74323 36.4596 9.68536 36.4699 9.60567C36.4937 9.4218 36.5135 9.14891 36.5291 8.76816C36.5602 8.00826 36.5735 6.84291 36.5735 5.15343C36.5735 3.01286 36.5676 1.86079 36.5278 1.21139C36.5077 0.884894 36.4799 0.705369 36.4475 0.597457L21.2056 0.417609ZM21.2056 0.417609C22.0647 0.341512 25.7928 0.268029 29.4966 0.255522C32.5231 0.245405 34.2064 0.246705 35.1673 0.280824C35.6495 0.297946 35.9367 0.323027 36.1164 0.355937C36.2918 0.388074 36.3356 0.422789 36.3551 0.440383L21.2056 0.417609ZM28.7854 36.036C30.4104 35.3596 32.0421 34.1946 33.4143 32.7384L33.2324 32.567L33.4143 32.7384C35.2945 30.743 36.4184 28.4488 36.8916 25.6473C36.964 25.2189 37.0543 24.8009 37.1408 24.4741C37.1842 24.3103 37.2257 24.1726 37.2627 24.0693C37.2812 24.0176 37.2974 23.9774 37.311 23.9484C37.3231 23.9225 37.3294 23.9134 37.3289 23.9138C37.3358 23.9059 37.3607 23.8828 37.4609 23.8576C37.5803 23.8276 37.7756 23.8024 38.1076 23.7838C38.768 23.7468 39.9056 23.7387 41.9137 23.7387C42.298 23.7387 42.6534 23.7378 42.9822 23.737C43.8593 23.7348 44.547 23.733 45.0881 23.75C45.8451 23.7737 46.2597 23.8344 46.4886 23.9482C46.5912 23.9993 46.6459 24.0564 46.6805 24.1222C46.7184 24.1938 46.7433 24.2966 46.7488 24.4554C46.7571 24.6941 46.7224 24.9942 46.6754 25.3992C46.657 25.5578 46.6368 25.7325 46.6165 25.926C46.3889 28.0995 45.821 30.359 45.0032 32.3449C41.9567 39.7438 35.3247 45.0596 27.4363 46.425L27.4789 46.6713L27.4363 46.425C25.7922 46.7097 24.8337 46.7443 18.1013 46.7443C15.2893 46.7443 13.4019 46.7319 12.1995 46.7012C11.5976 46.6857 11.1721 46.6658 10.8898 46.6411C10.7479 46.6287 10.6485 46.6156 10.5835 46.6027C10.5818 46.6024 10.58 46.602 10.5783 46.6017C10.5687 46.5615 10.5584 46.5039 10.5482 46.425C10.5244 46.2406 10.5046 45.9668 10.489 45.5848C10.458 44.8225 10.4447 43.6531 10.4447 41.9574C10.4447 39.6451 10.4455 38.4974 10.4906 37.8929C10.5134 37.587 10.546 37.4547 10.5768 37.3881C10.598 37.3422 10.6166 37.3247 10.7035 37.2638L10.7036 37.2637C10.7343 37.2422 10.8085 37.2054 11.0305 37.1727C11.2494 37.1404 11.5836 37.1157 12.1106 37.0976C13.1624 37.0616 14.9454 37.0531 18.0283 37.0531C21.9269 37.0531 24.0402 37.0396 25.4609 36.9066C26.9004 36.7719 27.6392 36.5132 28.7854 36.036ZM28.7854 36.036L28.6894 35.8051L28.7855 36.0359C28.7855 36.0359 28.7855 36.036 28.7854 36.036ZM10.5214 46.5867C10.5216 46.5867 10.5228 46.5871 10.5246 46.588C10.5222 46.5871 10.5212 46.5866 10.5214 46.5867Z" fill="url(#paint0_linear_690_33)" stroke="url(#paint1_linear_690_33)" stroke-width="0.5"/>
<circle cx="22.5" cy="23.5488" r="4.25" fill="url(#paint2_linear_690_33)" stroke="url(#paint3_linear_690_33)" stroke-width="0.5"/>
<defs>
<linearGradient id="paint0_linear_690_33" x1="47.0365" y1="19.0215" x2="-10.6826" y2="19.043" gradientUnits="userSpaceOnUse">
<stop stop-color="#FF016C"/>
<stop offset="1" stop-color="#120209" stop-opacity="0"/>
</linearGradient>
<linearGradient id="paint1_linear_690_33" x1="40" y1="9.04883" x2="7.5" y2="29.0488" gradientUnits="userSpaceOnUse">
<stop stop-color="#FF016C"/>
<stop offset="1" stop-color="#FF016C" stop-opacity="0"/>
</linearGradient>
<linearGradient id="paint2_linear_690_33" x1="26" y1="21.5488" x2="17.9729" y2="25.9999" gradientUnits="userSpaceOnUse">
<stop stop-color="#F8EBF0"/>
<stop offset="1" stop-color="white" stop-opacity="0"/>
</linearGradient>
<linearGradient id="paint3_linear_690_33" x1="25.5" y1="20.5488" x2="19" y2="26.0488" gradientUnits="userSpaceOnUse">
<stop stop-color="#FFF6F6"/>
<stop offset="1" stop-color="#FFF6F6" stop-opacity="0"/>
</linearGradient>
</defs>
</svg>
