<svg width="18" height="18" viewBox="0 0 18 18" fill="none" xmlns="http://www.w3.org/2000/svg">
<path d="M14.25 8.25H3.75C2.92157 8.25 2.25 8.92157 2.25 9.75V15C2.25 15.8284 2.92157 16.5 3.75 16.5H14.25C15.0784 16.5 15.75 15.8284 15.75 15V9.75C15.75 8.92157 15.0784 8.25 14.25 8.25Z" stroke="url(#paint0_linear_690_307)" stroke-width="1.50156" stroke-linecap="round" stroke-linejoin="round"/>
<path d="M5.25 8.25V5.25C5.25 4.25544 5.64509 3.30161 6.34835 2.59835C7.05161 1.89509 8.00544 1.5 9 1.5C9.99456 1.5 10.9484 1.89509 11.6516 2.59835C12.3549 3.30161 12.75 4.25544 12.75 5.25V8.25" stroke="url(#paint1_linear_690_307)" stroke-width="1.50156" stroke-linecap="round" stroke-linejoin="round"/>
<defs>
<linearGradient id="paint0_linear_690_307" x1="2.5854" y1="16.5" x2="15.75" y2="16.5" gradientUnits="userSpaceOnUse">
<stop stop-color="#FF016C"/>
<stop offset="1" stop-color="#DF4586"/>
</linearGradient>
<linearGradient id="paint1_linear_690_307" x1="5.43634" y1="8.25001" x2="12.75" y2="8.25001" gradientUnits="userSpaceOnUse">
<stop stop-color="#FF016C"/>
<stop offset="1" stop-color="#DF4586"/>
</linearGradient>
</defs>
</svg>
