<svg  viewBox="0 0 27 27" fill="none" xmlns="http://www.w3.org/2000/svg">
<path  d="M19.4572 19.0538L19.4571 19.0538C18.6393 19.9217 17.6615 20.6225 16.6753 21.033C15.9967 21.3155 15.536 21.4772 14.6615 21.559C13.8246 21.6374 12.5901 21.6447 10.3579 21.6447C8.58442 21.6447 7.56704 21.6497 6.97018 21.6701C6.67093 21.6804 6.49581 21.6941 6.39072 21.7094C6.38806 21.7329 6.38526 21.7619 6.38262 21.7974C6.35799 22.1276 6.35723 22.7679 6.35723 24.1061C6.35723 25.0803 6.3649 25.7457 6.38242 26.1757C6.38686 26.2847 6.39183 26.3755 6.39715 26.4503C6.54497 26.46 6.7481 26.4684 7.0182 26.4753C7.70386 26.4928 8.78405 26.5 10.3999 26.5C14.2793 26.5 14.7947 26.4789 15.7024 26.3218L15.7024 26.3218C20.114 25.5581 23.8228 22.5853 25.5265 18.4476C25.9831 17.3388 26.3012 16.0738 26.4285 14.8583C26.4285 14.8583 26.4285 14.8583 26.4285 14.8583L26.9258 14.9104C26.9896 14.3015 27.0633 13.9532 26.9238 13.7545C26.7138 13.4552 26.0203 13.4951 24.081 13.4951C21.7768 13.4951 21.4476 13.5135 21.3352 13.649L19.4572 19.0538ZM19.4572 19.0538C20.5876 17.8541 21.2639 16.4709 21.547 14.7947C21.587 14.5579 21.6367 14.3285 21.6833 14.1525C21.6949 14.1087 21.7059 14.0698 21.716 14.036L19.4572 19.0538ZM12.2148 0.594913L12.2148 0.594908C12.6898 0.552839 14.8139 0.510377 16.9481 0.50317C18.6901 0.497347 19.6488 0.498189 20.1923 0.517485C20.3991 0.52483 20.5311 0.534506 20.6161 0.544751C20.621 0.58598 20.6262 0.642105 20.6309 0.717824C20.6529 1.07718 20.6565 1.72528 20.6565 2.96084C20.6565 3.93143 20.6488 4.59449 20.6312 5.02307C20.6268 5.1323 20.6218 5.2232 20.6164 5.29799C20.4877 5.30665 20.3158 5.3143 20.092 5.3207C19.4788 5.33825 18.5166 5.3455 17.0835 5.3455C15.9707 5.3455 14.9272 5.35624 14.1073 5.37438C13.3033 5.39216 12.6786 5.4175 12.4304 5.45158L12.4304 5.45158C9.67869 5.82952 7.39976 7.49576 6.15911 10.0254L6.15909 10.0254C5.95947 10.4325 5.76356 10.9998 5.61765 11.5328C5.47775 12.0438 5.36718 12.583 5.35968 12.9509C5.27396 12.9579 5.16321 12.9643 5.02295 12.9699C4.58523 12.9875 3.90742 12.9951 2.91401 12.9951C2.71406 12.9951 2.52846 12.9954 2.35602 12.9957C1.83737 12.9965 1.43777 12.9971 1.12451 12.9891C0.791982 12.9806 0.605054 12.9621 0.501159 12.9413C0.502369 12.9152 0.504585 12.8829 0.508164 12.8428C0.513697 12.7808 0.518824 12.7332 0.524624 12.6794C0.530619 12.6237 0.537333 12.5614 0.545957 12.4696C0.946443 8.20458 3.29874 4.47894 6.96303 2.3021L6.96304 2.30209C8.44127 1.42387 10.5368 0.743349 12.2148 0.594913ZM21.7605 13.908C21.7606 13.9077 21.7601 13.9089 21.7589 13.9113L21.7594 13.9101C21.76 13.9088 21.7604 13.9082 21.7605 13.908ZM15.6689 14.5697C14.7527 16.3775 12.2609 16.3775 11.3448 14.5697C10.6712 13.2404 11.409 11.5985 12.8944 11.1989C13.2267 11.1095 13.3636 11.0834 13.4862 11.083C13.6091 11.0826 13.747 11.1079 14.0816 11.195C15.6062 11.5921 16.3501 13.2254 15.6689 14.5697Z" stroke="#DCC7D0"/>
</svg>
